# xmcd CD database file
#
# Track frame offsets:
#	150
#	12882
#	34329
#	48656
#	65104
#	76728
#	120949
#	137694
#	160569
#	175171
#	182934
#	201047
#	225526
#	254076
#
# Disc length: 4125 seconds
#
# Revision: 0
# Processed by: cddbd v1.5PL3 Copyright (c) Steve Scherf et al.
# Submitted via: CDex 1.40Release
#
DISCID=b9101b0e
DTITLE=Rob Quist and Jack Gladstone - Odyssey West
DYEAR=2003
DGENRE=Native American
TTITLE0=Somebody's Dream
TTITLE1=Buffalo Cafe
TTITLE2=Old Sam, Prelude
TTITLE3=Hudson Bay Blues
TTITLE4=Lewis and Clark Rag
TTITLE5=Voice of the Prairie (Medley)/Wolf/The Horse Whisperer/Faces the Blizzard (Buffalo)
TTITLE6=Sacagawea
TTITLE7=In Search of York
TTITLE8=Two Medicine
TTITLE9=She's Been Called a Lady
TTITLE10=America . . . Pass It On
TTITLE11=Roll On Forever
TTITLE12=When the Land Belonged to God
TTITLE13=Data Track
EXTD=YEAR: 2003 ID3G: 64
EXTT0=
EXTT1=
EXTT2=
EXTT3=
EXTT4=
EXTT5=
EXTT6=
EXTT7=
EXTT8=
EXTT9=
EXTT10=
EXTT11=
EXTT12=
EXTT13=
PLAYORDER=
